<?xml version="1.0" standalone="no"?>
<!DOCTYPE svg PUBLIC "-//W3C//DTD SVG 1.1//EN"
  "http://www.w3.org/Graphics/SVG/1.1/DTD/svg11.dtd">
<svg version="1.1" xmlns="http://www.w3.org/2000/svg" xmlns:xlink="http://www.w3.org/1999/xlink" width="2560" height="1440" viewBox="-1040.8888888888887 -32 1889.7777777777776 1063" id="ccdiagram"><filter id="grayscale"><feColorMatrix type="matrix" values="0.3333 0.3333 0.3333 0 0 0.3333 0.3333 0.3333 0 0 0.3333 0.3333 0.3333 0 0 0 0 0 1 0"></feColorMatrix></filter><defs><style type="text/css">@import url('https://fonts.googleapis.com/css?family=Open+Sans:400,700|Inconsolata:400');</style></defs><g><g pointer-events="auto"></g><g pointer-events="auto"><g opacity="1"><g id="97424ac5-38a8-412b-9dca-215ed8e798bd"><g><g><polygon points="304 472, 368 472, 496 398, 496 361, 144 157, -16 250, -16 287" stroke="#9e9e9e" stroke-width="8" fill="none"></polygon></g><g><polygon points="144 157, 112 139, -16 213, -16 250" stroke="#9e9e9e" stroke-width="8" fill="#9e9e9e"></polygon><text font-family="Inconsolata" font-size="20pt" font-weight="bold" fill="#ffffff" transform="translate(97 174) matrix(0.707 -0.409 0.707 0.409 0 0)" text-anchor="end">asg-sg</text><g transform="translate(112 148) matrix(0.707 0.409 -0.707 0.409 0 0)"><svg width="23" height="32" style="fill: rgb(255, 255, 255);"><svg xmlns="http://www.w3.org/2000/svg" width="23" height="32" viewBox="0 0 23 32"><path d="M19.429 17.143V5.714h-8v20.304c.911-.482 2.375-1.321 3.804-2.446 1.911-1.5 4.196-3.839 4.196-6.429zm3.428-13.714v13.714c0 7.518-10.518 12.268-10.964 12.464a1.049 1.049 0 01-.928 0C10.519 29.411.001 24.661.001 17.143V3.429c0-.625.518-1.143 1.143-1.143h20.571c.625 0 1.143.518 1.143 1.143z"></path></svg></svg></g></g></g></g></g><g opacity="1"><g id="1cc5a9da-9704-48df-9281-d64a6f2e267f"><g><g><polygon points="-144 564, -80 564, -16 527, -16 490, -112 435, -208 490, -208 527" stroke="#9e9e9e" stroke-width="8" fill="none"></polygon></g><g><polygon points="-112 435, -144 416, -208 453, -208 490" stroke="#9e9e9e" stroke-width="8" fill="#9e9e9e"></polygon><text font-family="Inconsolata" font-size="20pt" font-weight="bold" fill="#ffffff" transform="translate(-159 452) matrix(0.707 -0.409 0.707 0.409 0 0)" text-anchor="end">sg</text><g transform="translate(-144 425) matrix(0.707 0.409 -0.707 0.409 0 0)"><svg width="23" height="32" style="fill: rgb(255, 255, 255);"><svg xmlns="http://www.w3.org/2000/svg" width="23" height="32" viewBox="0 0 23 32"><path d="M19.429 17.143V5.714h-8v20.304c.911-.482 2.375-1.321 3.804-2.446 1.911-1.5 4.196-3.839 4.196-6.429zm3.428-13.714v13.714c0 7.518-10.518 12.268-10.964 12.464a1.049 1.049 0 01-.928 0C10.519 29.411.001 24.661.001 17.143V3.429c0-.625.518-1.143 1.143-1.143h20.571c.625 0 1.143.518 1.143 1.143z"></path></svg></svg></g></g></g></g></g></g><g></g><g pointer-events="auto"><g opacity="1"><g id="2f6b5a87-61a5-49d3-8ab4-f133e645c23e"><g><g><polygon points="-1 889, 769 444, -1 0, -770 444" stroke="#3f51b5" stroke-width="8" fill="none"></polygon></g><g><polygon points="-1 0, -33 -19, -257 111, -257 148" stroke="#3f51b5" stroke-width="8" fill="#3f51b5"></polygon><text font-family="Inconsolata" font-size="20pt" font-weight="bold" fill="#ffffff" transform="translate(-40 12) matrix(0.707 -0.409 0.707 0.409 0 0)" text-anchor="end">vpc</text><g transform="translate(-33 -14) matrix(0.707 0.409 -0.707 0.409 0 0)"><svg width="34" height="32" style="fill: rgb(255, 255, 255);"><svg xmlns="http://www.w3.org/2000/svg" width="34" height="32" viewBox="0 0 34 32"><path d="M34.286 20.571a6.858 6.858 0 01-6.857 6.857H8c-4.411 0-8-3.589-8-8a7.993 7.993 0 014.607-7.232c-.018-.25-.036-.518-.036-.768a9.137 9.137 0 019.143-9.143c3.821 0 7.089 2.339 8.464 5.679a4.439 4.439 0 012.964-1.107 4.58 4.58 0 014.571 4.571 4.49 4.49 0 01-.732 2.464c3.036.714 5.304 3.429 5.304 6.679z"></path></svg></svg></g></g></g></g></g></g><g></g><g pointer-events="auto"><g opacity="1"><g id="d06f96e1-0907-4fd0-9d79-391d31c3384f"><g><g><polygon transform="matrix(-0.707 -0.409 0.707 -0.409 0 0)" points="-723.6 -881.8875, -723.6 -520.0875, -89.5455 -520.0875, -89.5455 -881.8875" stroke-width="11.2" stroke="#8bc34a" stroke-dasharray="16" fill="none"></polygon></g><g><polygon points="-305 249, -337 231, -529 342, -529 379" stroke="#8bc34a" stroke-width="8" fill="#8bc34a"></polygon><text font-family="Inconsolata" font-size="20pt" font-weight="bold" fill="#ffffff" transform="translate(-353 267) matrix(0.707 -0.409 0.707 0.409 0 0)" text-anchor="end">public_1</text><g transform="translate(-337 241) matrix(0.707 0.409 -0.707 0.409 0 0)"><svg width="21" height="32" style="fill: rgb(255, 255, 255);"><svg xmlns="http://www.w3.org/2000/svg" width="21" height="32" viewBox="0 0 21 32"><path d="M5.714 13.714h9.143v-3.429c0-2.518-2.054-4.571-4.571-4.571s-4.571 2.054-4.571 4.571v3.429zm14.857 1.715v10.286c0 .946-.768 1.714-1.714 1.714H1.714A1.715 1.715 0 010 25.715V15.429c0-.946.768-1.714 1.714-1.714h.571v-3.429c0-4.393 3.607-8 8-8s8 3.607 8 8v3.429h.571c.946 0 1.714.768 1.714 1.714z"></path></svg></svg></g></g></g></g></g><g opacity="1"><g id="7ddad6f6-7996-4f89-80f4-1e00acdd02db"><g><g><polygon transform="matrix(-0.707 -0.409 0.707 -0.409 0 0)" points="-723.6 -881.8875, -723.6 -520.0875, -361.8 -520.0875, -361.8 -881.8875" stroke-width="11.2" stroke="#4caf50" stroke-dasharray="16" fill="none"></polygon></g><g><polygon points="-112 361, -144 342, -336 453, -336 490" stroke="#4caf50" stroke-width="8" fill="#4caf50"></polygon><text font-family="Inconsolata" font-size="20pt" font-weight="bold" fill="#ffffff" transform="translate(-161 379) matrix(0.707 -0.409 0.707 0.409 0 0)" text-anchor="end">public_2</text><g transform="translate(-144 352) matrix(0.707 0.409 -0.707 0.409 0 0)"><svg width="21" height="32" style="fill: rgb(255, 255, 255);"><svg xmlns="http://www.w3.org/2000/svg" width="21" height="32" viewBox="0 0 21 32"><path d="M5.714 13.714h9.143v-3.429c0-2.518-2.054-4.571-4.571-4.571s-4.571 2.054-4.571 4.571v3.429zm14.857 1.715v10.286c0 .946-.768 1.714-1.714 1.714H1.714A1.715 1.715 0 010 25.715V15.429c0-.946.768-1.714 1.714-1.714h.571v-3.429c0-4.393 3.607-8 8-8s8 3.607 8 8v3.429h.571c.946 0 1.714.768 1.714 1.714z"></path></svg></svg></g></g></g></g></g><g opacity="1"><g id="9c7f333c-3328-4ff4-99e1-b439e033bfc4"><g><g><polygon transform="matrix(-0.707 -0.409 0.707 -0.409 0 0)" points="-836.6625 -407.02500000000003, -881.8875 -361.8, -881.8875 -90.45, -836.6625 -45.225, -248.7375 -45.225, -248.7375 -227.934, -203.51250000000002 -273.159, -160.09650000000002 -273.159, -114.87150000000001 -318.384, -114.87150000000001 -402.05025000000006, -118.03725000000001 -405.21600000000007, -121.20300000000002 -408.38175000000007, -121.20300000000002 -427.37624999999997, -143.36325 -449.5365, -286.27425 -449.5365, -307.53000000000003 -428.28074999999995, -328.78575 -407.02500000000003" stroke-width="11.2" stroke="#00bcd4" stroke-dasharray="16" fill="none"></polygon></g><g><polygon points="144 120, 112 102, 15 158, 15 195" stroke="#00bcd4" stroke-width="8" fill="#00bcd4"></polygon><text font-family="Inconsolata" font-size="20pt" font-weight="bold" fill="#ffffff" transform="translate(95 138) matrix(0.707 -0.409 0.707 0.409 0 0)" text-anchor="end">private</text><g transform="translate(112 112) matrix(0.707 0.409 -0.707 0.409 0 0)"><svg width="21" height="32" style="fill: rgb(255, 255, 255);"><svg xmlns="http://www.w3.org/2000/svg" width="21" height="32" viewBox="0 0 21 32"><path d="M5.714 13.714h9.143v-3.429c0-2.518-2.054-4.571-4.571-4.571s-4.571 2.054-4.571 4.571v3.429zm14.857 1.715v10.286c0 .946-.768 1.714-1.714 1.714H1.714A1.715 1.715 0 010 25.715V15.429c0-.946.768-1.714 1.714-1.714h.571v-3.429c0-4.393 3.607-8 8-8s8 3.607 8 8v3.429h.571c.946 0 1.714.768 1.714 1.714z"></path></svg></svg></g></g></g></g></g><g opacity="1"><g id="4a2df340-2246-4150-8dd8-e0d184e023f5"><g><g><polygon transform="matrix(-0.707 -0.409 0.707 -0.409 0 0)" points="-1039.7227500000001 -838.4715, -1041.0795 -837.11475, -1041.0795 -587.0205000000001, -995.8545 -541.7955000000001, -767.9205000000001 -541.7955000000001, -767.9205000000001 -837.11475, -769.27725 -838.4715, -770.634 -839.82825, -770.634 -859.275, -791.4375 -880.0785000000001, -1017.5625 -880.0785000000001, -1038.366 -859.275, -1038.366 -839.82825" stroke-width="11.2" stroke="#f44336" stroke-dasharray="16" fill="none"></polygon></g><g><polygon points="160 536, 128 517, -18 602, -18 639" stroke="#f44336" stroke-width="8" fill="#f44336"></polygon><text font-family="Inconsolata" font-size="20pt" font-weight="bold" fill="#ffffff" transform="translate(111 554) matrix(0.707 -0.409 0.707 0.409 0 0)" text-anchor="end">firewall</text><g transform="translate(128 527) matrix(0.707 0.409 -0.707 0.409 0 0)"><svg width="21" height="32" style="fill: rgb(255, 255, 255);"><svg xmlns="http://www.w3.org/2000/svg" width="21" height="32" viewBox="0 0 21 32"><path d="M5.714 13.714h9.143v-3.429c0-2.518-2.054-4.571-4.571-4.571s-4.571 2.054-4.571 4.571v3.429zm14.857 1.715v10.286c0 .946-.768 1.714-1.714 1.714H1.714A1.715 1.715 0 010 25.715V15.429c0-.946.768-1.714 1.714-1.714h.571v-3.429c0-4.393 3.607-8 8-8s8 3.607 8 8v3.429h.571c.946 0 1.714.768 1.714 1.714z"></path></svg></svg></g></g></g></g></g></g><g pointer-events="auto"><g opacity="1"><g id="cbff1fd3-dd11-4627-add9-bddb97295922"><svg x="144" y="231" overflow="visible"><polygon points="0 0, 256 148, 192 185, -64 37" fill="#f5b720"></polygon><polygon points="0 0, 256 148, 192 185, -64 37" fill="none" stroke-width="20" stroke="#f5b720" opacity="1"></polygon><g cursor="nwse-resize"><polygon points="0 0, -19 -11, 13 -30, -83 -11, -115 44, -83 26, -64 37" fill="#f5b720"></polygon><polygon points="256 148, 275 159, 307 141, 275 196, 179 215, 211 196, 192 185" fill="#f5b720"></polygon></g></svg></g></g></g><g pointer-events="none"></g><g pointer-events="auto"><g><g cursor="cell"><line x1="-256" y1="315" x2="-258" y2="345" stroke="red" stroke-width="8" opacity="0"></line><line x1="-256" y1="315" x2="-258" y2="345" stroke="#000000" stroke-width="2" stroke-linecap="round"></line><polygon points="-259 353, -246 339, -258 343, -269 339, -259 353" stroke-linejoin="round" fill="#000000" stroke="#000000" stroke-width="1"></polygon></g></g><g><g cursor="cell"><line x1="0" y1="740" x2="-416" y2="500" stroke="red" stroke-width="8" opacity="0"></line><line x1="0" y1="740" x2="-416" y2="500" stroke="#000000" stroke-width="2" stroke-linecap="round"></line></g></g><g><g cursor="cell"><line x1="-704" y1="666" x2="-603" y2="724" stroke="red" stroke-width="8" opacity="0"></line><line x1="-704" y1="666" x2="-603" y2="724" stroke="#000000" stroke-width="2" stroke-linecap="round"></line><polygon points="-593 730, -603 715, -606 723, -619 725, -593 730" stroke-linejoin="round" fill="#000000" stroke="#000000" stroke-width="1"></polygon></g></g><g><g cursor="cell"><line x1="-513" y1="556" x2="-704" y2="666" stroke="red" stroke-width="8" opacity="0"></line><line x1="-513" y1="556" x2="-704" y2="666" stroke="#000000" stroke-width="2" stroke-linecap="round"></line></g></g><g><g cursor="cell"><line x1="368" y1="231" x2="128" y2="93" stroke="red" stroke-width="8" opacity="0"></line><line x1="368" y1="231" x2="128" y2="93" stroke="#000000" stroke-width="2" stroke-linecap="round"></line></g></g><g><g><g cursor="cell"><line x1="64" y1="315" x2="102" y2="292" stroke="red" stroke-width="8" opacity="0"></line><line x1="64" y1="315" x2="102" y2="292" stroke="#000000" stroke-width="2" stroke-linecap="none"></line><polygon points="112 287, 86 292, 100 294, 103 302, 112 287" stroke-linejoin="round" fill="#000000" stroke="#000000" stroke-width="1"></polygon></g><g cursor="cell"><line x1="64" y1="333" x2="64" y2="315" stroke="red" stroke-width="8" opacity="0"></line><line x1="64" y1="333" x2="64" y2="315" stroke="#000000" stroke-width="2" stroke-linecap="round"></line></g><g cursor="cell"><line x1="144" y1="379" x2="198" y2="348" stroke="red" stroke-width="8" opacity="0"></line><line x1="144" y1="379" x2="198" y2="348" stroke="#000000" stroke-width="2" stroke-linecap="none"></line><polygon points="208 342, 182 348, 196 349, 199 357, 208 342" stroke-linejoin="round" fill="#000000" stroke="#000000" stroke-width="1"></polygon></g><g cursor="cell"><line x1="256" y1="426" x2="294" y2="403" stroke="red" stroke-width="8" opacity="0"></line><line x1="256" y1="426" x2="294" y2="403" stroke="#000000" stroke-width="2" stroke-linecap="none"></line><polygon points="304 398, 278 403, 292 405, 295 413, 304 398" stroke-linejoin="round" fill="#000000" stroke="#000000" stroke-width="1"></polygon></g><g cursor="cell"><line x1="224" y1="426" x2="256" y2="426" stroke="red" stroke-width="8" opacity="0"></line><line x1="224" y1="426" x2="256" y2="426" stroke="#000000" stroke-width="2" stroke-linecap="round"></line></g><g cursor="cell"><line x1="64" y1="333" x2="224" y2="426" stroke="red" stroke-width="8" opacity="0"></line><line x1="64" y1="333" x2="224" y2="426" stroke="#000000" stroke-width="2" stroke-linecap="round"></line></g><g cursor="cell"><line x1="-63" y1="480" x2="128" y2="370" stroke="red" stroke-width="8" opacity="0"></line><line x1="-63" y1="480" x2="128" y2="370" stroke="#000000" stroke-width="2" stroke-linecap="round"></line></g></g></g><g><g cursor="cell"><line x1="-256" y1="241" x2="304" y2="564" stroke="red" stroke-width="8" opacity="0"></line><line x1="-256" y1="241" x2="304" y2="564" stroke="#000000" stroke-width="2" stroke-linecap="round"></line></g></g><g><g cursor="cell"><line x1="160" y1="648" x2="0" y2="740" stroke="red" stroke-width="8" opacity="0"></line><line x1="160" y1="648" x2="0" y2="740" stroke="#000000" stroke-width="2" stroke-linecap="round"></line></g></g><g><g cursor="cell"><line x1="-369" y1="360" x2="-416" y2="333" stroke="red" stroke-width="8" opacity="0"></line><line x1="-369" y1="360" x2="-416" y2="333" stroke="#000000" stroke-width="2" stroke-linecap="round"></line></g></g><g><g cursor="cell"><line x1="-432" y1="694" x2="-362" y2="653" stroke="red" stroke-width="8" opacity="0"></line><line x1="-432" y1="694" x2="-362" y2="653" stroke="#000000" stroke-width="2" stroke-linecap="round"></line><polygon points="-352 648, -378 653, -365 655, -361 662, -352 648" stroke-linejoin="round" fill="#000000" stroke="#000000" stroke-width="1"></polygon></g></g><g><g cursor="cell"><line x1="-416" y1="333" x2="-256" y2="241" stroke="red" stroke-width="8" opacity="0"></line><line x1="-416" y1="333" x2="-256" y2="241" stroke="#000000" stroke-width="2" stroke-linecap="round"></line></g></g><g><g><g cursor="cell"><line x1="208" y1="231" x2="224" y2="222" stroke="red" stroke-width="8" opacity="0"></line><line x1="208" y1="231" x2="224" y2="222" stroke="#000000" stroke-width="2" stroke-linecap="none"></line></g><g cursor="cell"><line x1="256" y1="222" x2="224" y2="222" stroke="red" stroke-width="8" opacity="0"></line><line x1="256" y1="222" x2="224" y2="222" stroke="#000000" stroke-width="2" stroke-linecap="round"></line></g><g cursor="cell"><line x1="304" y1="287" x2="336" y2="268" stroke="red" stroke-width="8" opacity="0"></line><line x1="304" y1="287" x2="336" y2="268" stroke="#000000" stroke-width="2" stroke-linecap="none"></line></g><g cursor="cell"><line x1="400" y1="342" x2="416" y2="333" stroke="red" stroke-width="8" opacity="0"></line><line x1="400" y1="342" x2="416" y2="333" stroke="#000000" stroke-width="2" stroke-linecap="none"></line></g><g cursor="cell"><line x1="416" y1="315" x2="416" y2="333" stroke="red" stroke-width="8" opacity="0"></line><line x1="416" y1="315" x2="416" y2="333" stroke="#000000" stroke-width="2" stroke-linecap="round"></line></g><g cursor="cell"><line x1="256" y1="222" x2="416" y2="315" stroke="red" stroke-width="8" opacity="0"></line><line x1="256" y1="222" x2="416" y2="315" stroke="#000000" stroke-width="2" stroke-linecap="round"></line></g><g cursor="cell"><line x1="320" y1="259" x2="368" y2="231" stroke="red" stroke-width="8" opacity="0"></line><line x1="320" y1="259" x2="368" y2="231" stroke="#000000" stroke-width="2" stroke-linecap="round"></line></g></g></g><g><g cursor="cell"><line x1="304" y1="564" x2="202" y2="623" stroke="red" stroke-width="8" opacity="0"></line><line x1="304" y1="564" x2="202" y2="623" stroke="#000000" stroke-width="2" stroke-linecap="round"></line><polygon points="192 629, 218 624, 205 622, 201 614, 192 629" stroke-linejoin="round" fill="#000000" stroke="#000000" stroke-width="1"></polygon></g></g><g><g cursor="cell"><line x1="128" y1="93" x2="-256" y2="315" stroke="red" stroke-width="8" opacity="0"></line><line x1="128" y1="93" x2="-256" y2="315" stroke="#000000" stroke-width="2" stroke-linecap="round"></line></g></g><g><g cursor="cell"><line x1="-416" y1="500" x2="-438" y2="512" stroke="red" stroke-width="8" opacity="0"></line><line x1="-416" y1="500" x2="-438" y2="512" stroke="#000000" stroke-width="2" stroke-linecap="round"></line><polygon points="-448 518, -422 513, -436 511, -439 503, -448 518" stroke-linejoin="round" fill="#000000" stroke="#000000" stroke-width="1"></polygon></g></g><g><g cursor="cell"><line x1="-320" y1="629" x2="-154" y2="533" stroke="red" stroke-width="8" opacity="0"></line><line x1="-320" y1="629" x2="-154" y2="533" stroke="#000000" stroke-width="2" stroke-linecap="round"></line><polygon points="-144 527, -170 533, -156 534, -153 542, -144 527" stroke-linejoin="round" fill="#000000" stroke="#000000" stroke-width="1"></polygon></g></g><g><g cursor="cell"><line x1="-544" y1="759" x2="-474" y2="718" stroke="red" stroke-width="8" opacity="0"></line><line x1="-544" y1="759" x2="-474" y2="718" stroke="#000000" stroke-width="2" stroke-linecap="round"></line><polygon points="-464 712, -490 718, -477 719, -473 727, -464 712" stroke-linejoin="round" fill="#000000" stroke="#000000" stroke-width="1"></polygon></g></g></g><g pointer-events="auto"><g opacity="1"><g id="9cdb1429-abc7-4a0f-b5e1-f213f537df08" transform="translate(0 0)"><svg x="80" y="194" height="111" width="128" fill-rule="evenodd"><path d="M64 74v37l64-37V37L64 74z" fill="#b8b8bb"></path><path d="M0 37v37l64 37V74L0 37z" fill="#d2d2d4"></path><path d="M0 37L64 0l64 37-64 37L0 37z" fill="#ececed"></path><path d="M64 73.407l62.111-35.86.514.889-62.487 36.078h-.276L.743 38.072l.514-.89L64 73.407z" fill="#83838a"></path><path d="M63.486 74h1.027v36h-1.027z" fill="#83838a"></path><path d="M128 37v37l-64 37L0 74V37L64 0l64 37zM2.054 38.185v34.63L64 108.627l61.946-35.812v-34.63L64 2.373 2.054 38.185z" fill="#000000"></path></svg><svg x="138" y="213" width="54" height="36" style="overflow: visible; cursor: default;"><rect transform="matrix(0.707 0.409 -0.707 0.409 0 0)" width="54" height="36" rx="5" ry="5" fill="#4286c5"></rect><text transform="matrix(0.707 0.409 -0.707 0.409 0 0)" font-family="Open Sans" text-anchor="middle" x="50%" font-weight="normal" font-size="20pt" y="80%" fill="#ffffff"><tspan>M4</tspan></text></svg></g></g><g opacity="1"><g id="4d01dba3-17c0-47ea-8ef6-545e34f4e306" transform="translate(0 0)"><svg x="176" y="250" height="111" width="128" fill-rule="evenodd"><path d="M64 74v37l64-37V37L64 74z" fill="#b8b8bb"></path><path d="M0 37v37l64 37V74L0 37z" fill="#d2d2d4"></path><path d="M0 37L64 0l64 37-64 37L0 37z" fill="#ececed"></path><path d="M64 73.407l62.111-35.86.514.889-62.487 36.078h-.276L.743 38.072l.514-.89L64 73.407z" fill="#83838a"></path><path d="M63.486 74h1.027v36h-1.027z" fill="#83838a"></path><path d="M128 37v37l-64 37L0 74V37L64 0l64 37zM2.054 38.185v34.63L64 108.627l61.946-35.812v-34.63L64 2.373 2.054 38.185z" fill="#000000"></path></svg><svg x="234" y="268" width="54" height="36" style="overflow: visible; cursor: default;"><rect transform="matrix(0.707 0.409 -0.707 0.409 0 0)" width="54" height="36" rx="5" ry="5" fill="#4286c5"></rect><text transform="matrix(0.707 0.409 -0.707 0.409 0 0)" font-family="Open Sans" text-anchor="middle" x="50%" font-weight="normal" font-size="20pt" y="80%" fill="#ffffff"><tspan>M4</tspan></text></svg></g></g><g opacity="1"><g id="cd03a9e6-82a4-48bd-83d5-d63e7a3a8d9d" transform="translate(0 0)"><svg x="272" y="305" height="111" width="128" fill-rule="evenodd"><path d="M64 74v37l64-37V37L64 74z" fill="#b8b8bb"></path><path d="M0 37v37l64 37V74L0 37z" fill="#d2d2d4"></path><path d="M0 37L64 0l64 37-64 37L0 37z" fill="#ececed"></path><path d="M64 73.407l62.111-35.86.514.889-62.487 36.078h-.276L.743 38.072l.514-.89L64 73.407z" fill="#83838a"></path><path d="M63.486 74h1.027v36h-1.027z" fill="#83838a"></path><path d="M128 37v37l-64 37L0 74V37L64 0l64 37zM2.054 38.185v34.63L64 108.627l61.946-35.812v-34.63L64 2.373 2.054 38.185z" fill="#000000"></path></svg><svg x="330" y="324" width="54" height="36" style="overflow: visible; cursor: default;"><rect transform="matrix(0.707 0.409 -0.707 0.409 0 0)" width="54" height="36" rx="5" ry="5" fill="#4286c5"></rect><text transform="matrix(0.707 0.409 -0.707 0.409 0 0)" font-family="Open Sans" text-anchor="middle" x="50%" font-weight="normal" font-size="20pt" y="80%" fill="#ffffff"><tspan>M4</tspan></text></svg></g></g><g opacity="1"><g id="a28cf358-efd4-4014-a051-616bc6cba0f9" transform="translate(0 0)"><svg x="-382" y="317" height="108.05" width="123" viewBox="0 0 32.544 28.588"><path d="M22.429 6.02v14.218l-7.873-4.318V1.474z" fill="#d2d2d4" fill-rule="evenodd" stroke="#83838a" stroke-width=".268"></path><path d="M32.28 2.228L22.428 6.02v14.219l9.85-8.531z" fill="#b8b8bb" fill-rule="evenodd" stroke="#83838a" stroke-width=".265"></path><path d="M22.429 6.02l-7.873-4.546L28.996.332l3.283 1.896z" fill="#ececed" fill-rule="evenodd" stroke="#83838a" stroke-width=".265"></path><path d="M32.28 11.707l-9.851 8.53-7.873-4.317V1.474L29.15.271l3.128 1.805z" fill="none" fill-rule="evenodd" stroke="#000000" stroke-width=".529"></path><path d="M10.115 3.65l8.208 4.74L3.496 18.787.265 16.921z" fill="#ececed" fill-rule="evenodd" stroke="#83838a" stroke-width=".268"></path><path d="M18.323 8.39V22.61L3.547 28.296l-.051-9.509z" fill="#b8b8bb" fill-rule="evenodd" stroke="#83838a" stroke-width=".265"></path><path d="M3.496 18.787L.265 16.921V26.4l3.282 1.897z" fill="#d2d2d4" fill-rule="evenodd" stroke="#83838a" stroke-width=".265"></path><path d="M10.115 3.65l8.208 4.74V22.61L3.547 28.296.265 26.399v-9.478z" fill="none" fill-rule="evenodd" stroke="#000000" stroke-width=".529"></path><path d="M28.702 10.545l.674-.589c.124-.108.225-.02.225.196v1.18c0 .216-.1.48-.225.588l-.674.59c-.124.108-.224.02-.224-.197v-1.178c0-.217.1-.481.224-.59zm.169-1.13l-1.349 1.18v.589l-.337.294v-.589l-1.348 1.179v.59l-.337.294v-.707c0-.26.121-.578.27-.708l1.415-1.237v-.786l-.28.246c-.125.108-.225.02-.225-.197V8.384c0-.217.1-.48.225-.589l.898-.786c.125-.108.225-.02.225.197v1.178c0 .217-.1.481-.225.59l-.28.245v.786l1.415-1.237c.149-.13.27-.025.27.235v.707l-.337.295zm-1.854 2.604l.674-.59c.124-.108.225-.02.225.197v1.178c0 .217-.1.481-.225.59l-.674.589c-.124.109-.225.02-.225-.196v-1.179c0-.217.1-.48.225-.59zm-1.685 1.473l.674-.59c.124-.108.224-.02.224.197v1.179c0 .217-.1.48-.224.59l-.674.588c-.125.109-.225.02-.225-.196v-1.179c0-.217.1-.48.225-.589z" fill="#4286c5" stroke-width=".009"></path></svg></g></g><g opacity="1"><g id="53de2595-e967-48e7-b3fe-52a11fe09756" transform="translate(0 0)"><svg x="-160" y="444" height="94" width="97" fill-rule="evenodd"><path d="M0 18.6v18.6l32.333 18.6h32.334L97 37.2V18.6L64.667 0H32.333L0 18.6z" fill="#ececed"></path><path d="M64.667 55.8L97 37.2v37.2L64.667 93V55.8z" fill="#b8b8bb"></path><path d="M32.333 55.8h32.334V93H32.333V55.8zM0 37.2v37.2L32.333 93V55.8L0 37.2z" fill="#d2d2d4"></path><g fill="none" stroke="#83838a" stroke-width="1.04"><path d="M.955 37.877L32.333 55.8h32.334l31.378-17.923M32.333 55.8v36.211M64.667 55.8v36.574"></path></g><path d="M97 18.6v55.8L64.667 93H32.333L0 74.4V18.6L32.333 0h32.334L97 18.6zM32.865 1.989L1.989 19.751v53.498l30.876 17.762h31.27l30.876-17.762V19.751L64.135 1.989h-31.27z" fill="#000000"></path><path d="M69.912 15.583c11.818 6.798 11.818 17.836 0 24.635-11.817 6.798-31.007 6.798-42.824 0-11.818-6.799-11.818-17.837 0-24.635 11.817-6.799 31.007-6.799 42.824 0z" fill="#4286c5"></path><path d="M49.584 14.774c1.824 1.049 1.824 2.753 0 3.802-1.824 1.05-4.786 1.05-6.61 0-1.824-1.049-1.824-2.753 0-3.802 1.824-1.05 4.786-1.05 6.61 0zM60.451 21.025c1.825 1.049 1.825 2.753 0 3.803-1.824 1.049-4.786 1.049-6.61 0-1.824-1.05-1.824-2.754 0-3.803s4.786-1.049 6.61 0zM71.319 27.276c1.824 1.05 1.824 2.754 0 3.803-1.825 1.049-4.787 1.049-6.611 0-1.824-1.049-1.824-2.753 0-3.803 1.824-1.049 4.786-1.049 6.611 0zM38.497 33.654c1.824 1.05 1.824 2.754 0 3.803-1.825 1.05-4.787 1.05-6.611 0-1.824-1.049-1.824-2.753 0-3.803 1.824-1.049 4.786-1.049 6.611 0z" fill="#ffffff"></path><path d="M47.458 15.878c.453.26.393.717-.133 1.02-.526.303-1.32.337-1.773.076-.452-.26-.392-.717.133-1.019.526-.303 1.321-.337 1.773-.077z" fill="#ffffff"></path><path d="M48.111 15.621c1.012.582 1.012 1.526 0 2.108-1.011.582-2.653.582-3.664 0-1.012-.582-1.012-1.526 0-2.108 1.011-.582 2.653-.582 3.664 0zM58.978 21.872c1.012.582 1.012 1.527 0 2.108-1.011.582-2.653.582-3.664 0-1.012-.581-1.012-1.526 0-2.108 1.011-.581 2.653-.581 3.664 0zM69.846 28.124c1.011.581 1.011 1.526 0 2.108-1.012.582-2.654.582-3.665 0-1.011-.582-1.011-1.527 0-2.108 1.011-.582 2.653-.582 3.665 0z" fill="#4286c5"></path><path d="M37.024 34.502c1.011.582 1.011 1.526 0 2.108-1.012.582-2.654.582-3.665 0-1.011-.582-1.011-1.526 0-2.108 1.011-.582 2.653-.582 3.665 0z" fill="#ffffff"></path><g fill="#ffffff"><path d="M52.301 25.172L37.719 33.56l.482.834 14.584-8.388-.484-.834z"></path><path d="M46.993 26.089l6.654-1.146-4.324 5.168c.189-1.691-.757-3.313-2.33-4.022z" stroke="#ffffff" stroke-width=".36"></path></g><g fill="#ffffff"><path d="M43.488 19.937l-6.057 13.797.886.387 6.056-13.798-.885-.386z"></path><path d="M39.76 23.812l4.676-4.854-.405 6.716c-.855-1.474-2.582-2.221-4.271-1.862z" stroke="#ffffff" stroke-width=".36"></path></g><g fill="#ffffff"><path d="M61.953 30.061l-23.985 3.483.14.955 23.985-3.486-.14-.952z"></path><path d="M56.68 28.957l6.608 1.387-5.936 3.209c.804-1.503.526-3.358-.672-4.596h0z" stroke="#ffffff" stroke-width=".36"></path></g><path d="M37.96 33.977l13.12-7.547M37.873 33.927l5.792-13.134M38.037 34.022l22.478-3.281" fill="#ffffff" stroke="#ffffff" stroke-width="1.93"></path></svg></g></g><g opacity="1"><g id="d2141ddb-6bb3-4284-9834-4cd4d31dd08e" transform="translate(0 0)"><svg x="-558" y="474" height="108.05" width="123" viewBox="0 0 32.544 28.588"><path d="M10.115 6.02v14.218l7.873-4.318V1.474z" fill="#b8b8bb" fill-rule="evenodd" stroke="#83838a" stroke-width=".268"></path><path d="M.265 2.228l9.85 3.791v14.219l-9.85-8.531z" fill="#d2d2d4" fill-rule="evenodd" stroke="#83838a" stroke-width=".265"></path><path d="M10.115 6.02l7.873-4.546L3.548.332.265 2.228z" fill="#ececed" fill-rule="evenodd" stroke="#83838a" stroke-width=".265"></path><path d="M.265 11.707l9.85 8.53 7.873-4.317V1.474L3.392.271.265 2.076z" fill="none" fill-rule="evenodd" stroke="#000000" stroke-width=".529"></path><path d="M22.429 3.65L14.22 8.39l14.828 10.397 3.231-1.866z" fill="#ececed" fill-rule="evenodd" stroke="#83838a" stroke-width=".268"></path><path d="M14.22 8.39V22.61l14.777 5.687.051-9.509z" fill="#d2d2d4" fill-rule="evenodd" stroke="#83838a" stroke-width=".265"></path><path d="M29.048 18.787l3.231-1.866V26.4l-3.282 1.897z" fill="#b8b8bb" fill-rule="evenodd" stroke="#83838a" stroke-width=".265"></path><path d="M22.429 3.65L14.22 8.39V22.61l14.777 5.687 3.282-1.897v-9.478z" fill="none" fill-rule="evenodd" stroke="#000000" stroke-width=".529"></path><path d="M25.604 20.872c-.071-.975-.928-2.116-1.982-2.599a2.547 2.547 0 0 0-.398-.144c-.566-.91-1.446-1.74-2.441-2.195-1.501-.687-2.76-.293-3.057.872-1.062-.091-1.77.532-1.77 1.597 0 1.436 1.27 3.181 2.84 3.899l5.961 2.73c1.41.645 2.555.121 2.555-1.17 0-1.004-.695-2.2-1.708-2.99zm-.847 3.38l-5.962-2.73c-1.098-.502-1.987-1.723-1.987-2.729 0-.916.74-1.336 1.704-1.022v-.018c0-1.148 1.016-1.613 2.27-1.04.95.435 1.763 1.34 2.102 2.252.198-.065.456-.041.738.088.626.287 1.135.986 1.135 1.56a.657.657 0 0 1-.156.454c.052.019.105.042.156.065.94.43 1.704 1.479 1.704 2.34 0 .86-.763 1.21-1.704.78z" fill="#4286c5" stroke-width=".017"></path></svg></g></g></g><g pointer-events="auto"></g><g pointer-events="auto"><g opacity="1"><g id="1fb3e61b-e953-4593-97a5-fa1ec1ccc0a6" transform="translate(0 0)"><svg x="-432" y="694" overflow="visible"><g transform="scale(1.2074767078498865) matrix(0.707 0.409 -0.707 0.409 0 0)"><circle cx="0" cy="0" fill="transparent" r="37.5"></circle><svg width="75" height="75" x="-37.5" y="-37.5"><svg xmlns="http://www.w3.org/2000/svg" viewBox="0 0 75 75"><defs><linearGradient id="RedGradient" x1="-747.88" y1="1726.51" x2="-597.88" y2="1726.51" gradientTransform="rotate(-45 -2356.5 24.504)" gradientUnits="userSpaceOnUse"><stop offset="0" stop-color="#bd0816"></stop><stop offset="1" stop-color="#ff5252"></stop></linearGradient></defs><g id="Reference"><path id="Red_Gradient" data-name="Red Gradient" fill="url(#RedGradient)" d="M0 0h75v75H0z"></path><g id="Icon_Test" data-name="Icon Test" fill="#fff"><path d="M52.5 18.61v19.94a10 10 0 00-2 0V19.34l-18-5.78-18 6.73v20.5a29.37 29.37 0 002.3 10.45c3 6.81 8.25 10.26 15.7 10.26a18.39 18.39 0 008.76-2l1.32 1.5v.1a20.17 20.17 0 01-10.08 2.4C22.14 63.5 17.25 57.27 15 52a31.08 31.08 0 01-2.5-11.21V19.6a1 1 0 01.65-.94l19-7.1a1 1 0 01.66 0l19 6.11a1 1 0 01.69.94z"></path><path d="M46.85 22.08l-14-5.26a1.05 1.05 0 00-.7 0l-14 5.26a1 1 0 00-.65.94v19.74a1.23 1.23 0 000 .19 27 27 0 002.91 7.55c2.94 5.06 7.11 7.74 12.07 7.74a12.19 12.19 0 006.88-2 13.57 13.57 0 01-.6-2l-.24.17a10.16 10.16 0 01-5 1.82v-37l12 4.5V40a12.19 12.19 0 012-.83V23a1 1 0 00-.67-.92zM19.5 42.66V23.71l12-4.5v37c-9-.82-11.76-12.42-12-13.55zM56.5 50.3v2h-4v4h-2v-4h-4v-2h4v-4h2v4h4z"></path><path d="M51.5 62.5a11 11 0 1111-11 11 11 0 01-11 11zm0-20a9 9 0 109 9 9 9 0 00-9-9z"></path></g></g></svg></svg></g></svg></g></g><g opacity="1"><g id="e5d700c6-913e-4586-a96c-532988253086" transform="translate(0 0)"><svg x="-320" y="629" overflow="visible"><g transform="scale(1.2074767078498865) matrix(0.707 0.409 -0.707 0.409 0 0)"><circle cx="0" cy="0" fill="transparent" r="37.5"></circle><svg width="75" height="75" x="-37.5" y="-37.5" style=""><svg xmlns="http://www.w3.org/2000/svg" viewBox="0 0 75 75"><defs><linearGradient id="RedGradient" x1="-5457.47" y1="-41.53" x2="-5563.54" y2="64.54" gradientTransform="rotate(180 -2736.5 24.5)" gradientUnits="userSpaceOnUse"><stop offset="0" stop-color="#bd0816"></stop><stop offset="1" stop-color="#ff5252"></stop></linearGradient></defs><g id="Reference"><path id="Red_Gradient" data-name="Red Gradient" fill="url(#RedGradient)" d="M0 0h75v75H0z"></path><g id="Icon_Test" data-name="Icon Test" fill="#fff"><path transform="rotate(-45 55.521 55.482)" d="M54.52 47.03h2v16.91h-2z"></path><path transform="rotate(-45 20.132 20.091)" d="M19.13 10.72h2v18.74h-2z"></path><path transform="rotate(-45 20 54.996)" d="M15.05 54h9.9v2h-9.9z"></path><path transform="rotate(-45 55.003 19.997)" d="M50.05 19h9.9v2h-9.9z"></path><path d="M62.5 36.5v2h-2A22.8 22.8 0 0156.15 51l-1.62-1.18a20.7 20.7 0 003.94-11.32h-2v-2h2a20.7 20.7 0 00-3.94-11.29L56.15 24a22.8 22.8 0 014.33 12.5zM51 18.85l-1.18 1.62a20.7 20.7 0 00-11.32-3.94v2h-2v-2a20.7 20.7 0 00-11.29 3.94L24 18.85a22.8 22.8 0 0112.5-4.33v-2h2v2A22.8 22.8 0 0151 18.85zM51 56.15a22.8 22.8 0 01-12.5 4.33v2h-2v-2A22.8 22.8 0 0124 56.15l1.18-1.62a20.7 20.7 0 0011.32 3.94v-2h2v2a20.7 20.7 0 0011.29-3.94zM16.53 38.5a20.7 20.7 0 003.94 11.29L18.85 51a22.8 22.8 0 01-4.33-12.5h-2v-2h2A22.8 22.8 0 0118.85 24l1.62 1.18a20.7 20.7 0 00-3.94 11.32h2v2z"></path><path d="M46.54 31.19a1 1 0 00-.94 0 1 1 0 00-.54.78 13.28 13.28 0 01-.31 1.81 14 14 0 00-8-11.33 10.46 10.46 0 00-4.61-2 1 1 0 00-.81 1.75 8.57 8.57 0 012.37 8c-1.16-1.53-3-3.36-5.18-3.36a1 1 0 00-.82.43 1 1 0 00-.11.93c.58 1.49 1.73 5.94.09 8.52-.11.16-.2.32-.3.49a9.24 9.24 0 002.79 12 26.85 26.85 0 006.3 3.15 1 1 0 00.34.06h.21c1.33-.12 10.38-1.29 12.23-8.47 2.56-9.75-2.49-12.64-2.71-12.76zM35.34 49.8a23.41 23.41 0 01-4-2.18 7.23 7.23 0 01-2.19-9.41l.24-.41c1.69-2.64 1.2-6.24.67-8.42a11.79 11.79 0 013.18 3.72 1 1 0 001.84-.1 11.66 11.66 0 00-.32-9.47 7.21 7.21 0 012.91 3.17c1.42 2.94 1.1 7-.82 10.51a18.48 18.48 0 00-1.51 12.59zm12-6.33c-1.31 5.1-7.56 6.54-9.8 6.89C37 48.42 35.93 43 38.6 38.12a14.43 14.43 0 001.47-10.74c1.81 2.12 3.33 5.47 2.52 10.49a1 1 0 001.62.93 8.75 8.75 0 002.51-4.69c.96 1.39 1.96 4.2.63 9.36z"></path></g></g></svg></svg></g></svg></g></g><g opacity="1"><g id="c182bc82-9197-43ae-a30a-d3aa9983dea6" transform="translate(0 0)"><svg x="160" y="648" overflow="visible"><g transform="scale(1.2074767078498865) matrix(0.707 0.409 -0.707 0.409 0 0)"><circle cx="0" cy="0" fill="transparent" r="37.5"></circle><svg width="75" height="75" x="-37.5" y="-37.5" style=""><svg xmlns="http://www.w3.org/2000/svg" viewBox="0 0 75 75"><defs><linearGradient id="RedGradient" x1="-1092.54" y1="1035.47" x2="-986.47" y2="1141.54" gradientTransform="rotate(-90 -1026.5 24.5)" gradientUnits="userSpaceOnUse"><stop offset="0" stop-color="#bd0816"></stop><stop offset="1" stop-color="#ff5252"></stop></linearGradient></defs><g id="Reference"><path id="Red_Gradient" data-name="Red Gradient" fill="url(#RedGradient)" d="M0 0h75v75H0z"></path><g id="Icon_Test" data-name="Icon Test" fill="#fff"><path d="M47.32 38.35a1 1 0 00-.94 0 1 1 0 00-.54.79 14.3 14.3 0 01-.57 2.81 15.29 15.29 0 00-4.39-10.25 16.14 16.14 0 00-4.67-3.3A11.65 11.65 0 0031 26.17a1 1 0 00-1.09.57 1 1 0 00.28 1.19 10.06 10.06 0 012.69 9.51c-1.3-1.75-3.44-4-6-4a1 1 0 00-.82.44 1 1 0 00-.11.92c0 .06 2.38 6.24.1 9.83-.12.18-.23.36-.35.56a10.4 10.4 0 003.16 13.51 30.24 30.24 0 007 3.5l.15.06v-.06l.32.13h.09c1.21-.11 11.8-1.31 14-9.57 2.8-11.03-2.87-14.27-3.1-14.41zM30 57.06a8.36 8.36 0 01-2.55-10.89c.08-.16.18-.32.28-.48 2-3.11 1.29-7.42.66-9.83a12.86 12.86 0 014 4.48 1 1 0 00.95.53 1 1 0 00.87-.67c1.78-5.07.7-8.79-.58-11.09a7.51 7.51 0 011.23.78.52.52 0 00.14.11 9.16 9.16 0 011.19 1.11 2.94 2.94 0 01.32.4 9.92 9.92 0 012 6.23 15.13 15.13 0 01-2 7.34c-.21.38-.39.76-.58 1.15a21.08 21.08 0 00-1.1 13.42A27.47 27.47 0 0130 57.06zm18.44-4.8c-1.57 6-9.09 7.63-11.43 8a19.18 19.18 0 01.68-13.15q.24-.51.51-1a17 17 0 002.26-8.32 13.21 13.21 0 00-.69-4.29C42 35.89 44 39.84 43 45.86a1 1 0 001.62.94c.09-.08 2-1.67 2.88-5.57 1.18 1.52 2.55 4.77.95 11.03z"></path><path d="M36 62.2v.06a.84.84 0 00.35.07zM15.17 37.67v-.5a4.5 4.5 0 002-8.55 21.86 21.86 0 016.25-8.08L22.14 19a23.67 23.67 0 00-7 9.19 4.5 4.5 0 00-1.94 8.54v1a24 24 0 008.26 18.11l1.33-1.5a22 22 0 01-7.62-16.67zm-2.5-5a2.5 2.5 0 112.5 2.5 2.5 2.5 0 01-2.5-2.5zM59.83 29.17h-.21a23 23 0 00-2-4.13l-1.69 1.06a22 22 0 011.79 3.6 4.5 4.5 0 001.48 8.41 21.74 21.74 0 01-4.28 12.61l1.59 1.2a23.61 23.61 0 004.69-14 4.5 4.5 0 00-1.33-8.8zm0 7a2.5 2.5 0 112.5-2.5 2.5 2.5 0 01-2.5 2.5zM47.54 18.27a22 22 0 00-13.65-2.35l-.3-2a24 24 0 0114.9 2.57zM52.67 25.67a4.5 4.5 0 114.5-4.5 4.51 4.51 0 01-4.5 4.5zm0-7a2.5 2.5 0 102.5 2.5 2.51 2.51 0 00-2.5-2.5zM28.17 21.67a4.5 4.5 0 114.5-4.5 4.51 4.51 0 01-4.5 4.5zm0-7a2.5 2.5 0 102.5 2.5 2.51 2.51 0 00-2.5-2.5z"></path></g></g></svg></svg></g></svg></g></g><g opacity="1"><g id="50895d37-1ad9-4f24-a8c8-2c8891ad71e9" transform="translate(0 0)"><svg x="-544" y="759" overflow="visible"><g transform="scale(1.3975424859373686) matrix(0.707 0.409 -0.707 0.409 0 0)"><circle cx="0" cy="0" fill="transparent" r="40"></circle><svg width="100" height="100" x="-50" y="-50"><svg id="Layer_1" data-name="Layer 1" xmlns="http://www.w3.org/2000/svg" width="100" height="100" viewBox="0 0 100 100"><path d="M85.23 49v3.19C85.23 58 78.85 64 71 64H29c-7.85 0-14.23-6-14.23-11.81V49z" fill="#7d7c7c"></path><path d="M41.89 17.9a18 18 0 0116.42 10.56 9.14 9.14 0 0114.29 7.18c7.1.59 12.63 7.44 12.63 12.88v1.18c0 5.85-6.38 11.78-14.26 11.78H29c-7.86 0-14.24-5.93-14.24-11.78v-1.17c0-4.51 3.79-10.71 9.12-12.25v-.51A17.94 17.94 0 0141.89 17.9z" fill="#d2d3d3"></path><path fill="#fff" d="M34.51 50.41h8.01v11.08h-8.01z"></path><path fill="#fff" d="M28.53 53.33l9.99-17.29 9.98 17.29H28.53z"></path><path fill="#7d7c7c" d="M67.22 70.58l-9.99 17.29-9.98-17.29V68.1h19.97v2.48z"></path><path fill="#d2d3d3" d="M53.23 44.51h8.01v26.51h-8.01z"></path><path fill="#d2d3d3" d="M67.22 68.1l-9.99 17.29-9.98-17.29h19.97z"></path></svg></svg></g></svg></g></g><g opacity="1"><g id="8eb113c6-9fa1-41d3-9904-4fae9fae3f4b" transform="translate(0 0)"><svg x="80" y="675" overflow="visible"><g transform="scale(0.8944271909999159) matrix(0.707 0.409 -0.707 0.409 0 0)"><circle cx="0" cy="0" fill="#000000" r="23"></circle><svg width="30" height="32" x="-15" y="-16" style="fill: rgb(76, 175, 80);"><svg xmlns="http://www.w3.org/2000/svg" width="30" height="32" viewBox="0 0 30 32"><path d="M28.768 14.857c0 .607-.25 1.196-.661 1.607L16.482 28.107c-.429.411-1.018.661-1.625.661s-1.196-.25-1.607-.661L1.625 16.464c-.429-.411-.679-1-.679-1.607s.25-1.196.679-1.625l1.321-1.339c.429-.411 1.018-.661 1.625-.661s1.196.25 1.607.661l5.25 5.25V4.572a2.302 2.302 0 012.286-2.286H16a2.302 2.302 0 012.286 2.286v12.571l5.25-5.25c.411-.411 1-.661 1.607-.661s1.196.25 1.625.661l1.339 1.339c.411.429.661 1.018.661 1.625z"></path></svg></svg></g></svg></g></g><g opacity="1"><g id="b6a58b4a-54ea-41d6-9186-aa60e9cd3ce5" transform="translate(0 0)"><svg x="112" y="694" overflow="visible"><g transform="scale(0.8944271909999159) matrix(-0.707 -0.409 0.707 -0.409 0 0)"><circle cx="0" cy="0" fill="#000000" r="23"></circle><svg width="30" height="32" x="-15" y="-16" style="fill: rgb(244, 67, 54);"><svg xmlns="http://www.w3.org/2000/svg" width="30" height="32" viewBox="0 0 30 32"><path d="M28.768 14.857c0 .607-.25 1.196-.661 1.607L16.482 28.107c-.429.411-1.018.661-1.625.661s-1.196-.25-1.607-.661L1.625 16.464c-.429-.411-.679-1-.679-1.607s.25-1.196.679-1.625l1.321-1.339c.429-.411 1.018-.661 1.625-.661s1.196.25 1.607.661l5.25 5.25V4.572a2.302 2.302 0 012.286-2.286H16a2.302 2.302 0 012.286 2.286v12.571l5.25-5.25c.411-.411 1-.661 1.607-.661s1.196.25 1.625.661l1.339 1.339c.411.429.661 1.018.661 1.625z"></path></svg></svg></g></svg></g></g><g opacity="1"><g id="c6550a98-5d67-44ea-ac69-b4af9cc1254c" transform="translate(0 0)"><svg x="-112" y="213" overflow="visible"><g transform="scale(0.8944271909999159) matrix(0.707 0.409 -0.707 0.409 0 0)"><circle cx="0" cy="0" fill="#000000" r="23"></circle><svg width="30" height="32" x="-15" y="-16" style="fill: rgb(76, 175, 80);"><svg xmlns="http://www.w3.org/2000/svg" width="30" height="32" viewBox="0 0 30 32"><path d="M28.768 14.857c0 .607-.25 1.196-.661 1.607L16.482 28.107c-.429.411-1.018.661-1.625.661s-1.196-.25-1.607-.661L1.625 16.464c-.429-.411-.679-1-.679-1.607s.25-1.196.679-1.625l1.321-1.339c.429-.411 1.018-.661 1.625-.661s1.196.25 1.607.661l5.25 5.25V4.572a2.302 2.302 0 012.286-2.286H16a2.302 2.302 0 012.286 2.286v12.571l5.25-5.25c.411-.411 1-.661 1.607-.661s1.196.25 1.625.661l1.339 1.339c.411.429.661 1.018.661 1.625z"></path></svg></svg></g></svg></g></g><g opacity="1"><g id="31674155-1ca2-4505-b4f3-ba28f558b2ed" transform="translate(0 0)"><svg x="-80" y="231" overflow="visible"><g transform="scale(0.8944271909999159) matrix(-0.707 -0.409 0.707 -0.409 0 0)"><circle cx="0" cy="0" fill="#000000" r="23"></circle><svg width="30" height="32" x="-15" y="-16" style="fill: rgb(244, 67, 54);"><svg xmlns="http://www.w3.org/2000/svg" width="30" height="32" viewBox="0 0 30 32"><path d="M28.768 14.857c0 .607-.25 1.196-.661 1.607L16.482 28.107c-.429.411-1.018.661-1.625.661s-1.196-.25-1.607-.661L1.625 16.464c-.429-.411-.679-1-.679-1.607s.25-1.196.679-1.625l1.321-1.339c.429-.411 1.018-.661 1.625-.661s1.196.25 1.607.661l5.25 5.25V4.572a2.302 2.302 0 012.286-2.286H16a2.302 2.302 0 012.286 2.286v12.571l5.25-5.25c.411-.411 1-.661 1.607-.661s1.196.25 1.625.661l1.339 1.339c.411.429.661 1.018.661 1.625z"></path></svg></svg></g></svg></g></g><g opacity="1"><g id="177bc19c-a65a-41b6-9e99-4ddf876520e5" transform="translate(0 0)"><svg x="-416" y="352" overflow="visible"><g transform="scale(0.8944271909999159) matrix(0.707 -0.409 0.707 0.409 0 0)"><circle cx="0" cy="0" fill="#000000" r="23"></circle><svg width="30" height="32" x="-15" y="-16" style="fill: rgb(76, 175, 80);"><svg xmlns="http://www.w3.org/2000/svg" width="30" height="32" viewBox="0 0 30 32"><path d="M28.768 14.857c0 .607-.25 1.196-.661 1.607L16.482 28.107c-.429.411-1.018.661-1.625.661s-1.196-.25-1.607-.661L1.625 16.464c-.429-.411-.679-1-.679-1.607s.25-1.196.679-1.625l1.321-1.339c.429-.411 1.018-.661 1.625-.661s1.196.25 1.607.661l5.25 5.25V4.572a2.302 2.302 0 012.286-2.286H16a2.302 2.302 0 012.286 2.286v12.571l5.25-5.25c.411-.411 1-.661 1.607-.661s1.196.25 1.625.661l1.339 1.339c.411.429.661 1.018.661 1.625z"></path></svg></svg></g></svg></g></g><g opacity="1"><g id="ec121f77-2aa0-4d3f-a0b1-56749f1cd75b" transform="translate(0 0)"><svg x="-384" y="333" overflow="visible"><g transform="scale(0.8944271909999159) matrix(-0.707 0.409 -0.707 -0.409 0 0)"><circle cx="0" cy="0" fill="#000000" r="23"></circle><svg width="30" height="32" x="-15" y="-16" style="fill: rgb(244, 67, 54);"><svg xmlns="http://www.w3.org/2000/svg" width="30" height="32" viewBox="0 0 30 32"><path d="M28.768 14.857c0 .607-.25 1.196-.661 1.607L16.482 28.107c-.429.411-1.018.661-1.625.661s-1.196-.25-1.607-.661L1.625 16.464c-.429-.411-.679-1-.679-1.607s.25-1.196.679-1.625l1.321-1.339c.429-.411 1.018-.661 1.625-.661s1.196.25 1.607.661l5.25 5.25V4.572a2.302 2.302 0 012.286-2.286H16a2.302 2.302 0 012.286 2.286v12.571l5.25-5.25c.411-.411 1-.661 1.607-.661s1.196.25 1.625.661l1.339 1.339c.411.429.661 1.018.661 1.625z"></path></svg></svg></g></svg></g></g></g><g pointer-events="auto"><g opacity="1"><g id="47a90b0f-e8c2-493a-97aa-dc71d0a2ee69" transform="translate(0 0)"><svg x="-448" y="740" overflow="visible"><text stroke="#ffffff" stroke-width="4" font-family="Open Sans" y="36.5" font-size="25pt" fill="#000000" font-weight="bold" transform="matrix(0.707 -0.409 0.707 0.409 0 0)" xml:space="preserve"><tspan x="8" dy="0">Shield</tspan></text><text font-family="Open Sans" y="36.5" font-size="25pt" fill="#000000" font-weight="bold" transform="matrix(0.707 -0.409 0.707 0.409 0 0)" xml:space="preserve"><tspan x="8" dy="0">Shield</tspan></text></svg></g></g><g opacity="1"><g id="528e1bed-eb94-4da0-bc3a-1dcf5dbd0403" transform="translate(0 0)"><svg x="-320" y="666" overflow="visible"><text stroke="#ffffff" stroke-width="4" font-family="Open Sans" y="36.5" font-size="25pt" fill="#000000" font-weight="bold" transform="matrix(0.707 -0.409 0.707 0.409 0 0)" xml:space="preserve"><tspan x="8" dy="0">WAF</tspan></text><text font-family="Open Sans" y="36.5" font-size="25pt" fill="#000000" font-weight="bold" transform="matrix(0.707 -0.409 0.707 0.409 0 0)" xml:space="preserve"><tspan x="8" dy="0">WAF</tspan></text></svg></g></g><g opacity="1"><g id="3d86e505-0700-499c-9f41-2b0e78754697" transform="translate(0 0)"><svg x="-480" y="592" overflow="visible"><text stroke="#ffffff" stroke-width="4" font-family="Open Sans" y="36.5" font-size="25pt" fill="#000000" font-weight="bold" transform="matrix(0.707 -0.409 0.707 0.409 0 0)" xml:space="preserve"><tspan x="8" dy="0">IGW</tspan></text><text font-family="Open Sans" y="36.5" font-size="25pt" fill="#000000" font-weight="bold" transform="matrix(0.707 -0.409 0.707 0.409 0 0)" xml:space="preserve"><tspan x="8" dy="0">IGW</tspan></text></svg></g></g><g opacity="1"><g id="b6f41f54-d1f4-495e-a8c0-b77e6aa62569" transform="translate(0 0)"><svg x="-352" y="426" overflow="visible"><text stroke="#ffffff" stroke-width="4" font-family="Open Sans" y="36.5" font-size="25pt" fill="#000000" font-weight="bold" transform="matrix(0.707 -0.409 0.707 0.409 0 0)" xml:space="preserve"><tspan x="8" dy="0">NGW</tspan></text><text font-family="Open Sans" y="36.5" font-size="25pt" fill="#000000" font-weight="bold" transform="matrix(0.707 -0.409 0.707 0.409 0 0)" xml:space="preserve"><tspan x="8" dy="0">NGW</tspan></text></svg></g></g><g opacity="1"><g id="15c087d5-ea20-4f4f-a8a1-8b6bcc738c1e" transform="translate(0 0)"><svg x="-112" y="546" overflow="visible"><text stroke="#ffffff" stroke-width="4" font-family="Open Sans" y="36.5" font-size="25pt" fill="#000000" font-weight="bold" transform="matrix(0.707 -0.409 0.707 0.409 0 0)" xml:space="preserve"><tspan x="8" dy="0">ALB</tspan></text><text font-family="Open Sans" y="36.5" font-size="25pt" fill="#000000" font-weight="bold" transform="matrix(0.707 -0.409 0.707 0.409 0 0)" xml:space="preserve"><tspan x="8" dy="0">ALB</tspan></text></svg></g></g><g opacity="1"><g id="68dfda6d-3e47-4280-b97e-fb7abd24c87a" transform="translate(0 0)"><svg x="128" y="703" overflow="visible"><text stroke="#ffffff" stroke-width="4" font-family="Open Sans" y="36.5" font-size="25pt" fill="#000000" font-weight="bold" transform="matrix(0.707 -0.409 0.707 0.409 0 0)" xml:space="preserve"><tspan x="8" dy="0">Firewall</tspan></text><text font-family="Open Sans" y="36.5" font-size="25pt" fill="#000000" font-weight="bold" transform="matrix(0.707 -0.409 0.707 0.409 0 0)" xml:space="preserve"><tspan x="8" dy="0">Firewall</tspan></text></svg></g></g><g opacity="1"><g id="039d3b36-af91-4ac4-9fd5-12578a3c72b3" transform="translate(0 0)"><svg x="288" y="241" overflow="visible"><text stroke="#ffffff" stroke-width="4" font-family="Open Sans" y="36.5" font-size="25pt" fill="#000000" font-weight="bold" transform="matrix(0.707 0.409 -0.707 0.409 0 0)" xml:space="preserve"><tspan x="8" dy="0">ASG</tspan></text><text font-family="Open Sans" y="36.5" font-size="25pt" fill="#000000" font-weight="bold" transform="matrix(0.707 0.409 -0.707 0.409 0 0)" xml:space="preserve"><tspan x="8" dy="0">ASG</tspan></text></svg></g></g><g opacity="1"><g id="1239ad6d-8c7b-4044-a17a-8686874363af" transform="translate(0 0)"><svg x="-144" y="213" overflow="visible"><text stroke="#ffffff" stroke-width="4" font-family="Open Sans" y="36.5" font-size="25pt" fill="#000000" font-weight="bold" transform="matrix(0.707 0.409 -0.707 0.409 0 0)" xml:space="preserve"><tspan x="8" dy="0">NACL</tspan></text><text font-family="Open Sans" y="36.5" font-size="25pt" fill="#000000" font-weight="bold" transform="matrix(0.707 0.409 -0.707 0.409 0 0)" xml:space="preserve"><tspan x="8" dy="0">NACL</tspan></text></svg></g></g><g opacity="1"><g id="49304814-e2ef-4962-b715-bd1a72e3bebd" transform="translate(0 0)"><svg x="0" y="666" overflow="visible"><text stroke="#ffffff" stroke-width="4" font-family="Open Sans" y="36.5" font-size="25pt" fill="#000000" font-weight="bold" transform="matrix(0.707 -0.409 0.707 0.409 0 0)" xml:space="preserve"><tspan x="8" dy="0">NACL</tspan></text><text font-family="Open Sans" y="36.5" font-size="25pt" fill="#000000" font-weight="bold" transform="matrix(0.707 -0.409 0.707 0.409 0 0)" xml:space="preserve"><tspan x="8" dy="0">NACL</tspan></text></svg></g></g><g opacity="1"><g id="38886a56-e1f2-4684-a735-ecb5d7ee58a1" transform="translate(0 0)"><svg x="-384" y="315" overflow="visible"><text stroke="#ffffff" stroke-width="4" font-family="Open Sans" y="36.5" font-size="25pt" fill="#000000" font-weight="bold" transform="matrix(0.707 -0.409 0.707 0.409 0 0)" xml:space="preserve"><tspan x="8" dy="0">NACL</tspan></text><text font-family="Open Sans" y="36.5" font-size="25pt" fill="#000000" font-weight="bold" transform="matrix(0.707 -0.409 0.707 0.409 0 0)" xml:space="preserve"><tspan x="8" dy="0">NACL</tspan></text></svg></g></g></g><g></g><g></g></g></svg>